<?xml version="1.0" encoding="utf-8"?>
<!-- Generator: Adobe Illustrator 16.0.0, SVG Export Plug-In . SVG Version: 6.00 Build 0)  -->
<!DOCTYPE svg PUBLIC "-//W3C//DTD SVG 1.1//EN" "http://www.w3.org/Graphics/SVG/1.1/DTD/svg11.dtd">
<svg version="1.1" id="Layer_1" xmlns="http://www.w3.org/2000/svg" xmlns:xlink="http://www.w3.org/1999/xlink" x="0px" y="0px"
	 width="75.499px" height="77.749px" viewBox="0 0 75.499 77.749" enable-background="new 0 0 75.499 77.749" xml:space="preserve">
<path fill="#FFFFFF" d="M50.357,68.219h14.074V54.143H50.357V68.219z M51.946,55.732h10.895V66.63H51.946V55.732z M64.433,36.996
	H50.356v14.076h14.076V36.996z M62.842,49.482H51.946V38.584h10.896V49.482z M25.143,54.143H11.066v14.076h14.077V54.143z
	 M23.552,66.631H12.657V55.733h10.895V66.631z M44.788,54.143H30.711v14.076h14.077V54.143z M43.197,66.631H32.302V55.733h10.896
	V66.631z M44.788,36.996H30.711v14.076h14.077V36.996z M43.197,49.482H32.302V38.586h10.896V49.482z"/>
<polygon fill="#FFFFFF" points="50.271,42.458 53.151,38.564 56.877,41.322 63.99,32.456 67.499,35.273 57.93,49.447 "/>
<g>
	<defs>
		<rect id="SVGID_1_" width="75.499" height="77.749"/>
	</defs>
	<clipPath id="SVGID_2_">
		<use xlink:href="#SVGID_1_"  overflow="visible"/>
	</clipPath>
	<path clip-path="url(#SVGID_2_)" fill="#FFFFFF" d="M55.382,18.551c-0.002,1.164,0.531,2.213,1.31,2.911
		c0.776,0.706,1.813,1.113,2.922,1.113c1.11,0,2.146-0.407,2.924-1.113c0.776-0.698,1.31-1.747,1.308-2.911V4.026
		c0.002-1.167-0.531-2.215-1.308-2.913C61.759,0.409,60.722,0.004,59.613,0c-1.108,0.004-2.145,0.409-2.922,1.113
		c-0.778,0.698-1.312,1.746-1.31,2.913v7.889h-32.64v3.974h32.64V18.551z M74.918,12.496c-0.37-0.37-0.882-0.581-1.406-0.581h-7.04
		v3.974h5.053v11.576H3.975V15.889h7.678v2.662c-0.002,1.164,0.531,2.213,1.309,2.911c0.779,0.706,1.814,1.113,2.923,1.113
		c1.11,0,2.145-0.407,2.922-1.113c0.778-0.698,1.313-1.747,1.309-2.911V4.026c0.004-1.167-0.531-2.215-1.309-2.913
		C18.029,0.409,16.995,0.004,15.884,0c-1.109,0.004-2.144,0.409-2.923,1.113c-0.778,0.698-1.311,1.746-1.309,2.913v7.889H1.986
		c-0.523,0-1.035,0.211-1.405,0.581C0.21,12.867,0,13.378,0,13.902v15.547v0.005V70.99c0,3.733,3.023,6.756,6.756,6.759h61.985
		c3.733-0.003,6.756-3.025,6.758-6.759V29.454v-0.002v-15.55C75.499,13.378,75.288,12.867,74.918,12.496 M71.524,70.99
		c-0.003,1.535-1.248,2.781-2.783,2.783H6.756c-1.536-0.002-2.78-1.248-2.782-2.783V31.441h67.55V70.99z"/>
</g>
</svg>
